<svg xmlns="http://www.w3.org/2000/svg" width="48" height="48" viewBox="0 0 48 48" fill="none">
  <circle cx="24" cy="24" r="20" fill="#4A7CB5" opacity="0.1"/>
  <path d="M24 8C15.168 8 8 15.168 8 24C8 32.832 15.168 40 24 40C32.832 40 40 32.832 40 24C40 15.168 32.832 8 24 8ZM24 38C16.28 38 10 31.72 10 24C10 16.28 16.28 10 24 10C31.72 10 38 16.28 38 24C38 31.72 31.72 38 24 38Z" fill="#4A7CB5"/>
  <path d="M24 12C24 12 18 16 18 24C18 32 24 36 24 36C24 36 30 32 30 24C30 16 24 12 24 12Z" fill="#4A7CB5" opacity="0.6"/>
  <line x1="10" y1="24" x2="38" y2="24" stroke="#4A7CB5" stroke-width="2"/>
  <path d="M24 10C24 10 28 14 28 24C28 34 24 38 24 38" stroke="#4A7CB5" stroke-width="2" opacity="0.4"/>
  <path d="M24 10C24 10 20 14 20 24C20 34 24 38 24 38" stroke="#4A7CB5" stroke-width="2" opacity="0.4"/>
</svg>
